<?xml version="1.0" standalone="no"?><!-- Generator: Gravit.io --><svg xmlns="http://www.w3.org/2000/svg" xmlns:xlink="http://www.w3.org/1999/xlink" style="isolation:isolate" viewBox="0 0 25 25" width="25" height="25"><path d=" M 10.043 -43.317 C 8.882 -43.317 7.853 -42.573 7.486 -41.471 L 7.058 -40.19 C 6.875 -39.639 6.359 -39.267 5.777 -39.267 L 2.7 -39.267 C 1.208 -39.267 0 -38.058 0 -36.567 L 0 -21.717 C 0 -20.225 1.208 -19.017 2.7 -19.017 L 24.3 -19.017 C 25.792 -19.017 27 -20.225 27 -21.717 L 27 -36.567 C 27 -38.058 25.792 -39.267 24.3 -39.267 L 21.223 -39.267 C 20.642 -39.267 20.125 -39.639 19.942 -40.19 L 19.514 -41.471 C 19.147 -42.573 18.118 -43.317 16.957 -43.317 L 10.043 -43.317 Z  M 13.5 -35.217 C 16.478 -35.217 18.9 -32.795 18.9 -29.817 C 18.9 -26.839 16.478 -24.417 13.5 -24.417 C 10.522 -24.417 8.1 -26.839 8.1 -29.817 C 8.1 -32.795 10.522 -35.217 13.5 -35.217 Z  M 13.5 -32.517 C 12.009 -32.517 10.8 -31.308 10.8 -29.817 C 10.8 -28.325 12.009 -27.117 13.5 -27.117 C 14.991 -27.117 16.2 -28.325 16.2 -29.817 C 16.2 -31.308 14.991 -32.517 13.5 -32.517 Z " fill="rgb(175,175,175)"/><path d=" M 12.5 0 C 5.599 0 0 5.599 0 12.5 C 0 19.401 5.599 25 12.5 25 C 19.387 25 25 19.401 25 12.5 C 25 5.599 19.387 0 12.5 0 Z  M 20.757 5.762 C 22.248 7.579 23.143 9.897 23.17 12.405 C 22.817 12.337 19.292 11.619 15.74 12.066 C 15.659 11.89 15.591 11.7 15.51 11.51 C 15.293 10.995 15.049 10.466 14.805 9.965 C 18.736 8.365 20.526 6.06 20.757 5.762 Z  M 12.5 1.844 C 15.212 1.844 17.693 2.861 19.577 4.528 C 19.387 4.799 17.774 6.955 13.978 8.379 C 12.229 5.165 10.29 2.535 9.992 2.129 C 10.792 1.939 11.632 1.844 12.5 1.844 Z  M 7.958 2.847 C 8.243 3.227 10.141 5.87 11.917 9.016 C 6.928 10.344 2.522 10.317 2.047 10.317 C 2.739 7.009 4.976 4.257 7.958 2.847 Z  M 1.817 12.514 C 1.817 12.405 1.817 12.297 1.817 12.188 C 2.278 12.202 7.457 12.27 12.785 10.67 C 13.097 11.266 13.381 11.876 13.652 12.486 C 13.517 12.527 13.368 12.568 13.232 12.608 C 7.728 14.385 4.799 19.238 4.555 19.645 C 2.861 17.76 1.817 15.252 1.817 12.514 Z  M 12.5 23.183 C 10.033 23.183 7.755 22.343 5.952 20.933 C 6.142 20.54 8.311 16.364 14.33 14.262 C 14.357 14.249 14.371 14.249 14.398 14.235 C 15.903 18.126 16.513 21.394 16.676 22.329 C 15.388 22.885 13.978 23.183 12.5 23.183 Z  M 18.452 21.353 C 18.343 20.702 17.774 17.584 16.377 13.747 C 19.726 13.219 22.655 14.086 23.021 14.208 C 22.56 17.177 20.851 19.74 18.452 21.353 Z " fill-rule="evenodd" fill="rgb(175,175,175)"/></svg>