<?xml version="1.0" standalone="no"?><!-- Generator: Gravit.io --><svg xmlns="http://www.w3.org/2000/svg" xmlns:xlink="http://www.w3.org/1999/xlink" style="isolation:isolate" viewBox="0 0 25 25" width="25" height="25"><path d=" M 10.043 -43.317 C 8.882 -43.317 7.853 -42.573 7.486 -41.471 L 7.058 -40.19 C 6.875 -39.639 6.359 -39.267 5.777 -39.267 L 2.7 -39.267 C 1.208 -39.267 0 -38.058 0 -36.567 L 0 -21.717 C 0 -20.225 1.208 -19.017 2.7 -19.017 L 24.3 -19.017 C 25.792 -19.017 27 -20.225 27 -21.717 L 27 -36.567 C 27 -38.058 25.792 -39.267 24.3 -39.267 L 21.223 -39.267 C 20.642 -39.267 20.125 -39.639 19.942 -40.19 L 19.514 -41.471 C 19.147 -42.573 18.118 -43.317 16.957 -43.317 L 10.043 -43.317 Z  M 13.5 -35.217 C 16.478 -35.217 18.9 -32.795 18.9 -29.817 C 18.9 -26.839 16.478 -24.417 13.5 -24.417 C 10.522 -24.417 8.1 -26.839 8.1 -29.817 C 8.1 -32.795 10.522 -35.217 13.5 -35.217 Z  M 13.5 -32.517 C 12.009 -32.517 10.8 -31.308 10.8 -29.817 C 10.8 -28.325 12.009 -27.117 13.5 -27.117 C 14.991 -27.117 16.2 -28.325 16.2 -29.817 C 16.2 -31.308 14.991 -32.517 13.5 -32.517 Z " fill="rgb(175,175,175)"/><g><path d=" M -99 0.404 C -99.922 0.813 -100.909 1.088 -101.948 1.213 C -100.888 0.578 -100.074 -0.428 -99.692 -1.624 C -100.681 -1.037 -101.782 -0.611 -102.949 -0.381 C -103.885 -1.378 -105.217 -2 -106.692 -2 C -109.525 -2 -111.822 0.295 -111.822 3.128 C -111.822 3.53 -111.776 3.921 -111.688 4.297 C -115.951 4.083 -119.729 2.041 -122.26 -1.063 C -122.702 -0.303 -122.954 0.578 -122.954 1.517 C -122.954 3.296 -122.05 4.866 -120.672 5.788 C -121.514 5.761 -122.305 5.529 -122.997 5.145 C -122.997 5.166 -122.997 5.188 -122.997 5.209 C -122.997 7.695 -121.227 9.766 -118.883 10.24 C -119.312 10.357 -119.766 10.419 -120.234 10.419 C -120.565 10.419 -120.886 10.388 -121.2 10.326 C -120.545 12.362 -118.652 13.848 -116.409 13.889 C -118.163 15.265 -120.374 16.083 -122.778 16.083 C -123.193 16.083 -123.601 16.06 -124 16.011 C -121.732 17.468 -119.035 18.316 -116.138 18.316 C -106.704 18.316 -101.545 10.501 -101.545 3.724 C -101.545 3.502 -101.55 3.278 -101.558 3.06 C -100.557 2.337 -99.688 1.433 -99 0.404 Z " fill="rgb(0,0,0)"/></g><g><path d=" M 12.5 0.796 C 5.871 0.796 0.5 6.167 0.5 12.796 C 0.5 18.096 3.938 22.596 8.707 24.182 C 9.309 24.292 9.527 23.925 9.527 23.604 C 9.527 23.319 9.516 22.565 9.512 21.565 C 6.172 22.288 5.469 19.956 5.469 19.956 C 4.922 18.569 4.137 18.198 4.137 18.198 C 3.047 17.456 4.219 17.471 4.219 17.471 C 5.422 17.557 6.055 18.706 6.055 18.706 C 7.125 20.542 8.863 20.011 9.547 19.706 C 9.656 18.928 9.969 18.401 10.309 18.1 C 7.645 17.8 4.844 16.768 4.844 12.171 C 4.844 10.858 5.313 9.788 6.078 8.948 C 5.957 8.647 5.543 7.425 6.195 5.772 C 6.195 5.772 7.203 5.452 9.496 7.003 C 10.453 6.737 11.48 6.604 12.5 6.6 C 13.52 6.604 14.547 6.737 15.504 7.003 C 17.797 5.452 18.801 5.772 18.801 5.772 C 19.457 7.425 19.047 8.647 18.922 8.948 C 19.691 9.788 20.152 10.858 20.152 12.171 C 20.152 16.78 17.348 17.792 14.676 18.093 C 15.105 18.46 15.488 19.194 15.488 20.311 C 15.488 21.917 15.477 23.21 15.477 23.604 C 15.477 23.925 15.691 24.3 16.301 24.182 C 21.066 22.593 24.5 18.096 24.5 12.796 C 24.5 6.167 19.129 0.796 12.5 0.796 Z " fill-rule="evenodd" fill="rgb(175,175,175)"/></g></svg>