<?xml version="1.0" encoding="UTF-8" standalone="no"?><!DOCTYPE svg PUBLIC "-//W3C//DTD SVG 1.1//EN" "http://www.w3.org/Graphics/SVG/1.1/DTD/svg11.dtd"><svg width="100%" height="100%" viewBox="0 0 25 25" version="1.1" xmlns="http://www.w3.org/2000/svg" xmlns:xlink="http://www.w3.org/1999/xlink" xml:space="preserve" xmlns:serif="http://www.serif.com/" style="fill-rule:evenodd;clip-rule:evenodd;stroke-linejoin:round;stroke-miterlimit:1.41421;"><rect id="Artboard1" x="0" y="0" width="25" height="25" style="fill:none;"/><g id="Artboard11" serif:id="Artboard1"><clipPath id="_clip1"><rect id="iconmonstr-instagram-11" x="0" y="0" width="25" height="25"/></clipPath><g clip-path="url(#_clip1)"><path d="M12.5,2.253c3.338,0 3.733,0.013 5.052,0.073c3.388,0.154 4.97,1.761 5.124,5.124c0.06,1.318 0.072,1.714 0.072,5.051c0,3.339 -0.013,3.733 -0.072,5.051c-0.155,3.359 -1.733,4.97 -5.124,5.124c-1.319,0.06 -1.712,0.073 -5.052,0.073c-3.337,0 -3.733,-0.013 -5.051,-0.073c-3.396,-0.155 -4.97,-1.77 -5.124,-5.125c-0.06,-1.318 -0.073,-1.712 -0.073,-5.051c0,-3.337 0.014,-3.732 0.073,-5.051c0.155,-3.361 1.733,-4.97 5.124,-5.124c1.319,-0.059 1.714,-0.072 5.051,-0.072Zm0,-2.253c-3.395,0 -3.82,0.015 -5.153,0.075c-4.54,0.208 -7.063,2.727 -7.271,7.271c-0.061,1.334 -0.076,1.759 -0.076,5.154c0,3.395 0.015,3.821 0.075,5.154c0.208,4.54 2.727,7.063 7.271,7.271c1.334,0.06 1.759,0.075 5.154,0.075c3.395,0 3.821,-0.015 5.154,-0.075c4.536,-0.208 7.065,-2.727 7.27,-7.271c0.061,-1.333 0.076,-1.759 0.076,-5.154c0,-3.395 -0.015,-3.82 -0.075,-5.153c-0.204,-4.536 -2.726,-7.063 -7.27,-7.271c-1.334,-0.061 -1.76,-0.076 -5.155,-0.076Zm0,6.081c-3.545,0 -6.419,2.874 -6.419,6.419c0,3.545 2.874,6.42 6.419,6.42c3.545,0 6.419,-2.874 6.419,-6.42c0,-3.545 -2.874,-6.419 -6.419,-6.419Zm0,10.586c-2.301,0 -4.167,-1.865 -4.167,-4.167c0,-2.301 1.866,-4.167 4.167,-4.167c2.301,0 4.167,1.866 4.167,4.167c0,2.302 -1.866,4.167 -4.167,4.167Zm6.673,-12.339c-0.829,0 -1.501,0.672 -1.501,1.5c0,0.828 0.672,1.5 1.501,1.5c0.828,0 1.499,-0.672 1.499,-1.5c0,-0.828 -0.671,-1.5 -1.499,-1.5Z" style="fill:#afafaf;fill-rule:nonzero;"/></g></g></svg>