<?xml version="1.0" standalone="no"?><!-- Generator: Gravit.io --><svg xmlns="http://www.w3.org/2000/svg" xmlns:xlink="http://www.w3.org/1999/xlink" style="isolation:isolate" viewBox="0 0 25 25" width="25" height="25"><path d=" M 10.043 -43.317 C 8.882 -43.317 7.853 -42.573 7.486 -41.471 L 7.058 -40.19 C 6.875 -39.639 6.359 -39.267 5.777 -39.267 L 2.7 -39.267 C 1.208 -39.267 0 -38.058 0 -36.567 L 0 -21.717 C 0 -20.225 1.208 -19.017 2.7 -19.017 L 24.3 -19.017 C 25.792 -19.017 27 -20.225 27 -21.717 L 27 -36.567 C 27 -38.058 25.792 -39.267 24.3 -39.267 L 21.223 -39.267 C 20.642 -39.267 20.125 -39.639 19.942 -40.19 L 19.514 -41.471 C 19.147 -42.573 18.118 -43.317 16.957 -43.317 L 10.043 -43.317 Z  M 13.5 -35.217 C 16.478 -35.217 18.9 -32.795 18.9 -29.817 C 18.9 -26.839 16.478 -24.417 13.5 -24.417 C 10.522 -24.417 8.1 -26.839 8.1 -29.817 C 8.1 -32.795 10.522 -35.217 13.5 -35.217 Z  M 13.5 -32.517 C 12.009 -32.517 10.8 -31.308 10.8 -29.817 C 10.8 -28.325 12.009 -27.117 13.5 -27.117 C 14.991 -27.117 16.2 -28.325 16.2 -29.817 C 16.2 -31.308 14.991 -32.517 13.5 -32.517 Z " fill="rgb(175,175,175)"/><g><path d=" M 25 6.746 C 24.078 7.155 23.091 7.43 22.052 7.555 C 23.112 6.92 23.926 5.914 24.308 4.718 C 23.319 5.304 22.218 5.731 21.051 5.961 C 20.115 4.964 18.783 4.342 17.308 4.342 C 14.475 4.342 12.178 6.637 12.178 9.47 C 12.178 9.872 12.224 10.263 12.312 10.639 C 8.049 10.425 4.271 8.383 1.74 5.279 C 1.298 6.039 1.046 6.92 1.046 7.859 C 1.046 9.638 1.95 11.208 3.328 12.13 C 2.486 12.102 1.695 11.871 1.003 11.487 C 1.003 11.508 1.003 11.53 1.003 11.551 C 1.003 14.037 2.773 16.108 5.117 16.582 C 4.688 16.699 4.234 16.761 3.766 16.761 C 3.435 16.761 3.114 16.73 2.8 16.668 C 3.455 18.704 5.348 20.19 7.591 20.231 C 5.837 21.607 3.626 22.425 1.222 22.425 C 0.807 22.425 0.399 22.402 0 22.353 C 2.268 23.81 4.965 24.658 7.862 24.658 C 17.296 24.658 22.455 16.843 22.455 10.066 C 22.455 9.844 22.45 9.62 22.442 9.402 C 23.443 8.679 24.312 7.775 25 6.746 Z " fill="rgb(175,175,175)"/></g><g><path d=" M -60.167 -83.204 C -66.796 -83.204 -72.167 -77.833 -72.167 -71.204 C -72.167 -65.904 -68.729 -61.404 -63.96 -59.818 C -63.358 -59.708 -63.139 -60.075 -63.139 -60.396 C -63.139 -60.681 -63.151 -61.435 -63.155 -62.435 C -66.495 -61.712 -67.198 -64.044 -67.198 -64.044 C -67.745 -65.431 -68.53 -65.802 -68.53 -65.802 C -69.62 -66.544 -68.448 -66.529 -68.448 -66.529 C -67.245 -66.443 -66.612 -65.294 -66.612 -65.294 C -65.542 -63.458 -63.803 -63.989 -63.12 -64.294 C -63.01 -65.072 -62.698 -65.599 -62.358 -65.9 C -65.022 -66.2 -67.823 -67.232 -67.823 -71.829 C -67.823 -73.142 -67.354 -74.212 -66.589 -75.052 C -66.71 -75.353 -67.124 -76.575 -66.471 -78.228 C -66.471 -78.228 -65.464 -78.548 -63.171 -76.997 C -62.214 -77.263 -61.186 -77.396 -60.167 -77.4 C -59.147 -77.396 -58.12 -77.263 -57.163 -76.997 C -54.87 -78.548 -53.866 -78.228 -53.866 -78.228 C -53.21 -76.575 -53.62 -75.353 -53.745 -75.052 C -52.975 -74.212 -52.514 -73.142 -52.514 -71.829 C -52.514 -67.22 -55.319 -66.208 -57.991 -65.907 C -57.561 -65.54 -57.178 -64.806 -57.178 -63.689 C -57.178 -62.083 -57.19 -60.79 -57.19 -60.396 C -57.19 -60.075 -56.975 -59.7 -56.366 -59.818 C -51.6 -61.407 -48.167 -65.904 -48.167 -71.204 C -48.167 -77.833 -53.538 -83.204 -60.167 -83.204 Z " fill-rule="evenodd" fill="rgb(175,175,175)"/></g></svg>