<?xml version="1.0" standalone="no"?><!-- Generator: Gravit.io --><svg xmlns="http://www.w3.org/2000/svg" xmlns:xlink="http://www.w3.org/1999/xlink" style="isolation:isolate" viewBox="0 0 27 25" width="27" height="25"><path d=" M 10.043 0.35 C 8.882 0.35 7.853 1.094 7.486 2.196 L 7.058 3.477 C 6.875 4.028 6.359 4.4 5.777 4.4 L 2.7 4.4 C 1.208 4.4 0 5.608 0 7.1 L 0 21.95 C 0 23.442 1.208 24.65 2.7 24.65 L 24.3 24.65 C 25.792 24.65 27 23.442 27 21.95 L 27 7.1 C 27 5.608 25.792 4.4 24.3 4.4 L 21.223 4.4 C 20.642 4.4 20.125 4.028 19.942 3.477 L 19.514 2.196 C 19.147 1.094 18.118 0.35 16.957 0.35 L 10.043 0.35 Z  M 13.5 8.45 C 16.478 8.45 18.9 10.872 18.9 13.85 C 18.9 16.828 16.478 19.25 13.5 19.25 C 10.522 19.25 8.1 16.828 8.1 13.85 C 8.1 10.872 10.522 8.45 13.5 8.45 Z  M 13.5 11.15 C 12.009 11.15 10.8 12.359 10.8 13.85 C 10.8 15.341 12.009 16.55 13.5 16.55 C 14.991 16.55 16.2 15.341 16.2 13.85 C 16.2 12.359 14.991 11.15 13.5 11.15 Z " fill="rgb(175,175,175)"/></svg>